<svg width="131" height="149" viewBox="0 0 131 149" fill="none" xmlns="http://www.w3.org/2000/svg">
<path d="M97.9722 46.6667V32.982C97.9722 28.7177 97.1323 24.4951 95.5004 20.5554C93.8685 16.6157 91.4766 13.036 88.4613 10.0207C85.446 7.00534 81.8663 4.61345 77.9266 2.98157C73.9869 1.34968 69.7643 0.509766 65.5 0.509766C61.2357 0.509766 57.0131 1.34968 53.0734 2.98157C49.1337 4.61345 45.554 7.00534 42.5387 10.0207C39.5233 13.036 37.1314 16.6157 35.4996 20.5554C33.8677 24.4951 33.0278 28.7177 33.0278 32.982V65.4542C33.0278 66.6845 33.5165 67.8644 34.3865 68.7344C35.2564 69.6044 36.4363 70.0931 37.6667 70.0931C38.897 70.0931 40.0769 69.6044 40.9468 68.7344C41.8168 67.8644 42.3055 66.6845 42.3055 65.4542V55.9445H79.4167V46.6667H42.3055V32.982C42.3055 26.8304 44.7492 20.9308 49.099 16.581C53.4488 12.2312 59.3484 9.78754 65.5 9.78754C71.6515 9.78754 77.5511 12.2312 81.9009 16.581C86.2507 20.9308 88.6944 26.8304 88.6944 32.982V65.2223C88.6944 66.4526 89.1832 67.6325 90.0531 68.5025C90.9231 69.3724 92.103 69.8612 93.3333 69.8612C94.5636 69.8612 95.7436 69.3724 96.6135 68.5025C97.4835 67.6325 97.9722 66.4526 97.9722 65.2223V55.9445H121.167V139.444H9.83332V55.9445H23.75V46.6667H0.555542V139.862C0.555542 142.212 1.48903 144.466 3.15066 146.127C4.81228 147.789 7.06593 148.722 9.41582 148.722H121.584C123.934 148.722 126.188 147.789 127.849 146.127C129.511 144.466 130.444 142.212 130.444 139.862V46.6667H97.9722Z" fill="black"/>
</svg>
