<svg width="151" height="147" viewBox="0 0 151 147" fill="none" xmlns="http://www.w3.org/2000/svg">
<path d="M75.4994 26.7935L68.7327 19.6077C52.8494 2.74022 23.7252 8.56098 13.2119 29.7672C8.27606 39.7415 7.16244 54.1422 16.1752 72.521C24.8577 90.2173 42.9211 111.414 75.4994 134.502C108.078 111.414 126.132 90.2173 134.823 72.521C143.836 54.1325 142.732 39.7415 137.787 29.7672C127.273 8.56098 98.1494 2.73047 82.2661 19.598L75.4994 26.7935ZM75.4994 146.251C-69.2058 47.4635 30.9449 -29.6395 73.8384 11.1447C74.4046 11.681 74.9614 12.2367 75.4994 12.812C76.0318 12.2373 76.5859 11.6843 77.1604 11.1545C120.044 -29.659 220.205 47.4537 75.4994 146.251Z" fill="#4D4D4D"/>
</svg>
