<svg width="1967" height="295" viewBox="0 0 1967 295" fill="none" xmlns="http://www.w3.org/2000/svg">
<path d="M231.491 0.357591L149.326 228.132L66.8036 0.357591H0V289.635H60.7305V123.721L125.391 289.635H173.261L237.921 124.078V289.635H298.651V0.357591H231.491Z" fill="black"/>
<path d="M419.295 0.357591V289.635H625.779V232.065H481.812V167.702L601.844 168.06V110.49L481.812 109.775V58.2845H625.779V0.357591H419.295Z" fill="black"/>
<path d="M833.298 233.853C797.931 233.853 791.858 220.265 791.858 170.563V170.205H731.128C731.128 234.568 741.13 295.356 833.298 294.998C925.466 294.998 936.54 245.296 936.54 170.92V0.357591H875.095V171.635C875.095 220.265 866.878 233.853 833.298 233.853Z" fill="black"/>
<path d="M1232.39 0V179.86C1232.39 225.629 1198.81 238.144 1170.23 238.144C1142.01 238.144 1108.07 225.629 1108.07 180.217V0H1051.63V178.787C1051.63 242.435 1088.07 294.998 1170.23 294.998C1253.83 294.998 1289.19 242.435 1289.19 178.787V0H1232.39Z" fill="black"/>
<path d="M1586.49 179.145C1620.43 166.272 1642.22 130.514 1642.22 93.6844C1642.22 45.7695 1603.64 0.357591 1540.76 0.357591H1407.16V289.635H1471.1V185.581C1471.1 185.581 1478.25 185.581 1523.97 185.581L1581.13 289.635H1654.72L1586.49 179.145ZM1471.1 129.442V56.4967H1545.77C1567.91 56.4967 1586.13 71.1572 1586.13 93.6844C1586.13 115.854 1567.91 129.442 1545.77 129.442H1471.1Z" fill="black"/>
<path d="M1760.52 0.357591V289.635H1967V232.065H1823.03V167.702L1943.07 168.06V110.49L1823.03 109.775V58.2845H1967V0.357591H1760.52Z" fill="black"/>
</svg>
