<svg width="145" height="145" viewBox="0 0 145 145" fill="none" xmlns="http://www.w3.org/2000/svg">
<path d="M106.412 93.7423C115.187 81.7679 119.117 66.9217 117.416 52.174C115.716 37.4262 108.509 23.8644 97.2385 14.2019C85.9679 4.53941 71.4646 -0.511281 56.6301 0.0603198C41.7955 0.63192 27.7239 6.78366 17.2302 17.2848C6.73662 27.7859 0.594958 41.862 0.0339725 56.6969C-0.527013 71.5319 4.53405 86.0316 14.2046 97.2952C23.8752 108.559 37.4421 115.756 52.1911 117.446C66.9401 119.136 81.7834 115.195 93.7516 106.412H93.7425C94.0144 106.774 94.3044 107.119 94.6306 107.454L129.521 142.344C131.221 144.045 133.526 145.001 135.93 145.002C138.334 145.002 140.64 144.048 142.34 142.349C144.041 140.65 144.996 138.345 144.997 135.941C144.998 133.537 144.044 131.231 142.345 129.53L107.454 94.6395C107.13 94.3115 106.782 94.0086 106.412 93.7333V93.7423ZM108.75 58.9061C108.75 65.4516 107.461 71.9331 104.956 77.9804C102.451 84.0278 98.7795 89.5225 94.1511 94.1509C89.5227 98.7793 84.0279 102.451 77.9806 104.956C71.9333 107.461 65.4518 108.75 58.9062 108.75C52.3607 108.75 45.8792 107.461 39.8319 104.956C33.7845 102.451 28.2898 98.7793 23.6614 94.1509C19.033 89.5225 15.3615 84.0278 12.8566 77.9804C10.3517 71.9331 9.0625 65.4516 9.0625 58.9061C9.0625 45.6867 14.3139 33.0087 23.6614 23.6612C33.0089 14.3137 45.6869 9.06231 58.9062 9.06231C72.1256 9.06231 84.8036 14.3137 94.1511 23.6612C103.499 33.0087 108.75 45.6867 108.75 58.9061V58.9061Z" fill="black"/>
</svg>
